<?xml version="1.0" standalone="no"?>
<svg xmlns="http://www.w3.org/2000/svg" width="388.23921619643033" height="207.39921619643036" viewBox="0 0 388.23921619643033 207.39921619643036"><path fill="#729b79" fill-rule="nonzero" d="M8.64 32.68L0 32.68L0 0.28L7.44 0.28Q9.64 0.28 11.26 0.76Q12.88 1.24 13.96 2.24Q15.04 3.24 15.56 4.78Q16.08 6.32 16.08 8.40L16.08 8.40Q16.08 10.40 15.58 11.86Q15.08 13.32 14.06 14.16Q13.04 15 11.44 15.24L11.44 15.24Q13.40 15.68 14.60 16.74Q15.80 17.80 16.38 19.46Q16.96 21.12 16.96 23.44L16.96 23.44Q16.96 25.52 16.48 27.24Q16 28.96 14.98 30.16Q13.96 31.36 12.38 32.02Q10.80 32.68 8.64 32.68L8.64 32.68ZM4.52 17.24L4.52 29.44L7.56 29.44Q10.60 29.44 11.62 28.02Q12.64 26.60 12.64 23.44L12.64 23.44Q12.64 21.40 12.10 20.02Q11.56 18.64 10.38 17.94Q9.20 17.24 7.20 17.24L7.20 17.24L4.52 17.24ZM4.52 3.64L4.52 13.80L7.20 13.80Q9.12 13.80 10.20 13.26Q11.28 12.72 11.72 11.52Q12.16 10.32 12.16 8.40L12.16 8.40Q12.16 6.16 11.48 5.16Q10.80 4.16 9.36 3.90Q7.92 3.64 5.60 3.64L5.60 3.64L4.52 3.64ZM29.32 33.04L29.32 33.04Q25.80 33.04 23.92 31.64Q22.04 30.24 21.36 27.70Q20.68 25.16 20.68 21.76L20.68 21.76L20.68 0.28L25 0.28L25 21.96Q25 24.04 25.28 25.76Q25.56 27.48 26.50 28.48Q27.44 29.48 29.32 29.48L29.32 29.48Q31.24 29.48 32.16 28.48Q33.08 27.48 33.36 25.76Q33.64 24.04 33.64 21.96L33.64 21.96L33.64 0.28L37.92 0.28L37.92 21.76Q37.92 25.16 37.24 27.70Q36.56 30.24 34.70 31.64Q32.84 33.04 29.32 33.04ZM55.32 32.68L42.68 32.68L42.68 0.28L55.24 0.28L55.24 3.64L47.20 3.64L47.20 14.36L53.72 14.36L53.72 17.56L47.20 17.56L47.20 29.44L55.32 29.44L55.32 32.68ZM62.80 32.68L58.96 32.68L58.96 0.28L62.04 0.28L71.24 21.80L71.24 0.28L75 0.28L75 32.68L72.12 32.68L62.80 10.56L62.80 32.68ZM88.36 33.04L88.36 33.04Q85.08 33.04 83.12 31.76Q81.16 30.48 80.32 28.10Q79.48 25.72 79.48 22.52L79.48 22.52L79.48 10.24Q79.48 7.04 80.34 4.74Q81.20 2.44 83.14 1.22Q85.08 0 88.36 0L88.36 0Q91.64 0 93.56 1.24Q95.48 2.48 96.34 4.76Q97.20 7.04 97.20 10.24L97.20 10.24L97.20 22.56Q97.20 25.72 96.34 28.08Q95.48 30.44 93.56 31.74Q91.64 33.04 88.36 33.04ZM88.36 29.48L88.36 29.48Q90.16 29.48 91.08 28.74Q92 28 92.32 26.66Q92.64 25.32 92.64 23.52L92.64 23.52L92.64 9.32Q92.64 7.52 92.32 6.22Q92 4.92 91.08 4.22Q90.16 3.52 88.36 3.52L88.36 3.52Q86.56 3.52 85.62 4.22Q84.68 4.92 84.36 6.22Q84.04 7.52 84.04 9.32L84.04 9.32L84.04 23.52Q84.04 25.32 84.36 26.66Q84.68 28 85.62 28.74Q86.56 29.48 88.36 29.48ZM109.28 33.04L109.28 33.04Q106.48 33.04 104.62 31.84Q102.76 30.64 101.80 28.52Q100.84 26.40 100.68 23.60L100.68 23.60L104.68 22.52Q104.80 24.24 105.22 25.84Q105.64 27.44 106.60 28.46Q107.56 29.48 109.28 29.48L109.28 29.48Q111.04 29.48 111.94 28.50Q112.84 27.52 112.84 25.68L112.84 25.68Q112.84 23.48 111.84 22.14Q110.84 20.80 109.32 19.44L109.32 19.44L103.88 14.64Q102.28 13.24 101.52 11.58Q100.76 9.92 100.76 7.48L100.76 7.48Q100.76 3.92 102.80 1.96Q104.84 0 108.36 0L108.36 0Q110.28 0 111.74 0.50Q113.20 1 114.18 2.04Q115.16 3.08 115.74 4.66Q116.32 6.24 116.52 8.36L116.52 8.36L112.68 9.40Q112.56 7.80 112.20 6.46Q111.84 5.12 110.94 4.30Q110.04 3.48 108.36 3.48L108.36 3.48Q106.68 3.48 105.74 4.38Q104.80 5.28 104.80 7.04L104.80 7.04Q104.80 8.52 105.30 9.48Q105.80 10.44 106.92 11.44L106.92 11.44L112.40 16.24Q114.24 17.84 115.64 20.06Q117.04 22.28 117.04 25.32L117.04 25.32Q117.04 27.72 116.04 29.46Q115.04 31.20 113.30 32.12Q111.56 33.04 109.28 33.04Z" transform="translate(0 0) scale(1.417)"></path><path fill="#729b79" fill-rule="nonzero" d="M4.24 32.68L0 32.68L6.88 0.28L11.24 0.28L18.16 32.68L13.88 32.68L12.40 24.52L5.80 24.52L4.24 32.68ZM9.08 6.68L6.40 21.28L11.80 21.28L9.08 6.68ZM26.12 32.68L21.68 32.68L21.68 0.28L26.12 0.28L26.12 32.68ZM35.88 32.68L31.36 32.68L31.36 0.28L37.88 0.28Q41.12 0.28 43.24 1.14Q45.36 2 46.38 3.90Q47.40 5.80 47.40 8.88L47.40 8.88Q47.40 10.76 47 12.30Q46.60 13.84 45.72 14.90Q44.84 15.96 43.40 16.44L43.40 16.44L48 32.68L43.64 32.68L39.40 17.48L35.88 17.48L35.88 32.68ZM35.88 3.52L35.88 14.24L37.60 14.24Q39.52 14.24 40.72 13.76Q41.92 13.28 42.48 12.12Q43.04 10.96 43.04 8.88L43.04 8.88Q43.04 6.04 42 4.78Q40.96 3.52 37.88 3.52L37.88 3.52L35.88 3.52ZM64.76 32.68L52.12 32.68L52.12 0.28L64.68 0.28L64.68 3.64L56.64 3.64L56.64 14.36L63.16 14.36L63.16 17.56L56.64 17.56L56.64 29.44L64.76 29.44L64.76 32.68ZM76.04 33.04L76.04 33.04Q73.24 33.04 71.38 31.84Q69.52 30.64 68.56 28.52Q67.60 26.40 67.44 23.60L67.44 23.60L71.44 22.52Q71.56 24.24 71.98 25.84Q72.40 27.44 73.36 28.46Q74.32 29.48 76.04 29.48L76.04 29.48Q77.80 29.48 78.70 28.50Q79.60 27.52 79.60 25.68L79.60 25.68Q79.60 23.48 78.60 22.14Q77.60 20.80 76.08 19.44L76.08 19.44L70.64 14.64Q69.04 13.24 68.28 11.58Q67.52 9.92 67.52 7.48L67.52 7.48Q67.52 3.92 69.56 1.96Q71.60 0 75.12 0L75.12 0Q77.04 0 78.50 0.50Q79.96 1 80.94 2.04Q81.92 3.08 82.50 4.66Q83.08 6.24 83.28 8.36L83.28 8.36L79.44 9.40Q79.32 7.80 78.96 6.46Q78.60 5.12 77.70 4.30Q76.80 3.48 75.12 3.48L75.12 3.48Q73.44 3.48 72.50 4.38Q71.56 5.28 71.56 7.04L71.56 7.04Q71.56 8.52 72.06 9.48Q72.56 10.44 73.68 11.44L73.68 11.44L79.16 16.24Q81 17.84 82.40 20.06Q83.80 22.28 83.80 25.32L83.80 25.32Q83.80 27.72 82.80 29.46Q81.80 31.20 80.06 32.12Q78.32 33.04 76.04 33.04Z" transform="translate(0 54.817) scale(1.979)"></path><path fill="#729b79" fill-rule="nonzero" d="M8.72 33.04L8.72 33.04Q5.28 33.04 3.38 31.60Q1.48 30.16 0.74 27.72Q0 25.28 0 22.28L0 22.28L0 10.84Q0 7.56 0.74 5.12Q1.48 2.68 3.38 1.34Q5.28 0 8.72 0L8.72 0Q11.76 0 13.54 1.12Q15.32 2.24 16.10 4.32Q16.88 6.40 16.88 9.32L16.88 9.32L16.88 11.88L12.60 11.88L12.60 9.60Q12.60 7.80 12.42 6.42Q12.24 5.04 11.44 4.28Q10.64 3.52 8.76 3.52L8.76 3.52Q6.84 3.52 5.96 4.34Q5.08 5.16 4.82 6.66Q4.56 8.16 4.56 10.16L4.56 10.16L4.56 23Q4.56 25.44 4.96 26.86Q5.36 28.28 6.28 28.88Q7.20 29.48 8.76 29.48L8.76 29.48Q10.60 29.48 11.40 28.66Q12.20 27.84 12.40 26.40Q12.60 24.96 12.60 23.04L12.60 23.04L12.60 20.64L16.88 20.64L16.88 23.04Q16.88 26 16.16 28.26Q15.44 30.52 13.68 31.78Q11.92 33.04 8.72 33.04ZM25.72 32.68L21.20 32.68L21.20 0.28L25.72 0.28L25.72 14.28L34.04 14.28L34.04 0.28L38.56 0.28L38.56 32.68L34.04 32.68L34.04 17.52L25.72 17.52L25.72 32.68ZM46.12 32.68L41.88 32.68L48.76 0.28L53.12 0.28L60.04 32.68L55.76 32.68L54.28 24.52L47.68 24.52L46.12 32.68ZM50.96 6.68L48.28 21.28L53.68 21.28L50.96 6.68ZM66.92 32.68L63.24 32.68L63.84 0.28L68.28 0.28L74 26.56L79.76 0.28L84.16 0.28L84.76 32.68L81.12 32.68L80.76 9.16L75.28 32.68L72.72 32.68L67.28 9.16L66.92 32.68ZM98.36 32.68L89.72 32.68L89.72 0.28L97.16 0.28Q99.36 0.28 100.98 0.76Q102.60 1.24 103.68 2.24Q104.76 3.24 105.28 4.78Q105.80 6.32 105.80 8.40L105.80 8.40Q105.80 10.40 105.30 11.86Q104.80 13.32 103.78 14.16Q102.76 15 101.16 15.24L101.16 15.24Q103.12 15.68 104.32 16.74Q105.52 17.80 106.10 19.46Q106.68 21.12 106.68 23.44L106.68 23.44Q106.68 25.52 106.20 27.24Q105.72 28.96 104.70 30.16Q103.68 31.36 102.10 32.02Q100.52 32.68 98.36 32.68L98.36 32.68ZM94.24 17.24L94.24 29.44L97.28 29.44Q100.32 29.44 101.34 28.02Q102.36 26.60 102.36 23.44L102.36 23.44Q102.36 21.40 101.82 20.02Q101.28 18.64 100.10 17.94Q98.92 17.24 96.92 17.24L96.92 17.24L94.24 17.24ZM94.24 3.64L94.24 13.80L96.92 13.80Q98.84 13.80 99.92 13.26Q101 12.72 101.44 11.52Q101.88 10.32 101.88 8.40L101.88 8.40Q101.88 6.16 101.20 5.16Q100.52 4.16 99.08 3.90Q97.64 3.64 95.32 3.64L95.32 3.64L94.24 3.64ZM123.32 32.68L110.68 32.68L110.68 0.28L123.24 0.28L123.24 3.64L115.20 3.64L115.20 14.36L121.72 14.36L121.72 17.56L115.20 17.56L115.20 29.44L123.32 29.44L123.32 32.68ZM131.48 32.68L126.96 32.68L126.96 0.28L133.48 0.28Q136.72 0.28 138.84 1.14Q140.96 2 141.98 3.90Q143 5.80 143 8.88L143 8.88Q143 10.76 142.60 12.30Q142.20 13.84 141.32 14.90Q140.44 15.96 139 16.44L139 16.44L143.60 32.68L139.24 32.68L135 17.48L131.48 17.48L131.48 32.68ZM131.48 3.52L131.48 14.24L133.20 14.24Q135.12 14.24 136.32 13.76Q137.52 13.28 138.08 12.12Q138.64 10.96 138.64 8.88L138.64 8.88Q138.64 6.04 137.60 4.78Q136.56 3.52 133.48 3.52L133.48 3.52L131.48 3.52Z" transform="translate(0 128.203) scale(1.155)"></path><path fill="#729b79" fill-rule="nonzero" d="M8.72 33.04L8.72 33.04Q5.28 33.04 3.38 31.60Q1.48 30.16 0.74 27.72Q0 25.28 0 22.28L0 22.28L0 10.84Q0 7.56 0.74 5.12Q1.48 2.68 3.38 1.34Q5.28 0 8.72 0L8.72 0Q11.76 0 13.54 1.12Q15.32 2.24 16.10 4.32Q16.88 6.40 16.88 9.32L16.88 9.32L16.88 11.88L12.60 11.88L12.60 9.60Q12.60 7.80 12.42 6.42Q12.24 5.04 11.44 4.28Q10.64 3.52 8.76 3.52L8.76 3.52Q6.84 3.52 5.96 4.34Q5.08 5.16 4.82 6.66Q4.56 8.16 4.56 10.16L4.56 10.16L4.56 23Q4.56 25.44 4.96 26.86Q5.36 28.28 6.28 28.88Q7.20 29.48 8.76 29.48L8.76 29.48Q10.60 29.48 11.40 28.66Q12.20 27.84 12.40 26.40Q12.60 24.96 12.60 23.04L12.60 23.04L12.60 20.64L16.88 20.64L16.88 23.04Q16.88 26 16.16 28.26Q15.44 30.52 13.68 31.78Q11.92 33.04 8.72 33.04ZM29.48 33.04L29.48 33.04Q26.20 33.04 24.24 31.76Q22.28 30.48 21.44 28.10Q20.60 25.72 20.60 22.52L20.60 22.52L20.60 10.24Q20.60 7.04 21.46 4.74Q22.32 2.44 24.26 1.22Q26.20 0 29.48 0L29.48 0Q32.76 0 34.68 1.24Q36.60 2.48 37.46 4.76Q38.32 7.04 38.32 10.24L38.32 10.24L38.32 22.56Q38.32 25.72 37.46 28.08Q36.60 30.44 34.68 31.74Q32.76 33.04 29.48 33.04ZM29.48 29.48L29.48 29.48Q31.28 29.48 32.20 28.74Q33.12 28 33.44 26.66Q33.76 25.32 33.76 23.52L33.76 23.52L33.76 9.32Q33.76 7.52 33.44 6.22Q33.12 4.92 32.20 4.22Q31.28 3.52 29.48 3.52L29.48 3.52Q27.68 3.52 26.74 4.22Q25.80 4.92 25.48 6.22Q25.16 7.52 25.16 9.32L25.16 9.32L25.16 23.52Q25.16 25.32 25.48 26.66Q25.80 28 26.74 28.74Q27.68 29.48 29.48 29.48ZM46.36 32.68L42.68 32.68L43.28 0.28L47.72 0.28L53.44 26.56L59.20 0.28L63.60 0.28L64.20 32.68L60.56 32.68L60.20 9.16L54.72 32.68L52.16 32.68L46.72 9.16L46.36 32.68ZM72.76 32.68L69.08 32.68L69.68 0.28L74.12 0.28L79.84 26.56L85.60 0.28L90 0.28L90.60 32.68L86.96 32.68L86.60 9.16L81.12 32.68L78.56 32.68L73.12 9.16L72.76 32.68ZM108.20 32.68L95.56 32.68L95.56 0.28L108.12 0.28L108.12 3.64L100.08 3.64L100.08 14.36L106.60 14.36L106.60 17.56L100.08 17.56L100.08 29.44L108.20 29.44L108.20 32.68ZM116.36 32.68L111.84 32.68L111.84 0.28L118.36 0.28Q121.60 0.28 123.72 1.14Q125.84 2 126.86 3.90Q127.88 5.80 127.88 8.88L127.88 8.88Q127.88 10.76 127.48 12.30Q127.08 13.84 126.20 14.90Q125.32 15.96 123.88 16.44L123.88 16.44L128.48 32.68L124.12 32.68L119.88 17.48L116.36 17.48L116.36 32.68ZM116.36 3.52L116.36 14.24L118.08 14.24Q120 14.24 121.20 13.76Q122.40 13.28 122.96 12.12Q123.52 10.96 123.52 8.88L123.52 8.88Q123.52 6.04 122.48 4.78Q121.44 3.52 118.36 3.52L118.36 3.52L116.36 3.52ZM140.72 33.04L140.72 33.04Q137.28 33.04 135.38 31.60Q133.48 30.16 132.74 27.72Q132 25.28 132 22.28L132 22.28L132 10.84Q132 7.56 132.74 5.12Q133.48 2.68 135.38 1.34Q137.28 0 140.72 0L140.72 0Q143.76 0 145.54 1.12Q147.32 2.24 148.10 4.32Q148.88 6.40 148.88 9.32L148.88 9.32L148.88 11.88L144.60 11.88L144.60 9.60Q144.60 7.80 144.42 6.42Q144.24 5.04 143.44 4.28Q142.64 3.52 140.76 3.52L140.76 3.52Q138.84 3.52 137.96 4.34Q137.08 5.16 136.82 6.66Q136.56 8.16 136.56 10.16L136.56 10.16L136.56 23Q136.56 25.44 136.96 26.86Q137.36 28.28 138.28 28.88Q139.20 29.48 140.76 29.48L140.76 29.48Q142.60 29.48 143.40 28.66Q144.20 27.84 144.40 26.40Q144.60 24.96 144.60 23.04L144.60 23.04L144.60 20.64L148.88 20.64L148.88 23.04Q148.88 26 148.16 28.26Q147.44 30.52 145.68 31.78Q143.92 33.04 140.72 33.04ZM165.84 32.68L153.20 32.68L153.20 0.28L165.76 0.28L165.76 3.64L157.72 3.64L157.72 14.36L164.24 14.36L164.24 17.56L157.72 17.56L157.72 29.44L165.84 29.44L165.84 32.68Z" transform="translate(0 174.36) scale(1)"></path><g fill="#2E2C2F" color="#2E2C2F" transform="translate(180.84 0) scale(6.4812256)"><svg width="32.0" height="32.0" x="0.0" y="0.0" viewBox="0 0 32 32"><title></title><path d="M22.44,25.88H21.16V24.56a.51.51,0,0,0-.5-.5H19.52l-1-18.57a.43.43,0,0,0-.11-.28l-2-2.52,0,0a.49.49,0,0,0-.74,0l0,0-2,2.52a.43.43,0,0,0-.11.28l-1,18.57H11.34a.51.51,0,0,0-.5.5v1.32H9.56a.5.5,0,0,0-.5.5V29a.5.5,0,0,0,.5.5H22.44a.5.5,0,0,0,.5-.5V26.38A.5.5,0,0,0,22.44,25.88Zm-8-20.17,1.05-1.3V13a.5.5,0,0,0,1,0V4.41l1.05,1.3,1,18.35h-5ZM11.84,25.06h8.32v.82H11.84Zm10.1,3.44H10.06V26.88H21.94ZM16.5,15.28v3.25a.5.5,0,0,1-1,0V15.28a.5.5,0,0,1,1,0Z"></path></svg></g></svg>